<?xml version="1.0" encoding="iso-8859-1"?>
<!-- Generator: Adobe Illustrator 21.0.2, SVG Export Plug-In . SVG Version: 6.00 Build 0)  -->
<svg xmlns="http://www.w3.org/2000/svg" xmlns:xlink="http://www.w3.org/1999/xlink" version="1.1" id="Layer_1" x="0px" y="0px" viewBox="0 0 40 40" style="enable-background:new 0 0 40 40;" xml:space="preserve">
<path style="fill:none;stroke:#4788C7;stroke-miterlimit:10;" d="M32.5,23.5H16.192c-5.353,0-9.692-4.339-9.692-9.692"/>
<line style="fill:none;stroke:#4788C7;stroke-miterlimit:10;" x1="6.5" y1="33.5" x2="6.5" y2="6.5"/>
<g>
	<circle style="fill:#DFF0FE;" cx="6.5" cy="6.5" r="4"/>
	<path style="fill:#4788C7;" d="M6.5,3C8.43,3,10,4.57,10,6.5C10,8.43,8.43,10,6.5,10C4.57,10,3,8.43,3,6.5C3,4.57,4.57,3,6.5,3    M6.5,2C4.015,2,2,4.014,2,6.5C2,8.985,4.015,11,6.5,11S11,8.985,11,6.5C11,4.014,8.985,2,6.5,2L6.5,2z"/>
</g>
<g>
	<circle style="fill:#DFF0FE;" cx="6.5" cy="33.5" r="4"/>
	<path style="fill:#4788C7;" d="M6.5,30c1.93,0,3.5,1.57,3.5,3.5S8.43,37,6.5,37C4.57,37,3,35.43,3,33.5S4.57,30,6.5,30 M6.5,29   C4.015,29,2,31.014,2,33.5C2,35.985,4.015,38,6.5,38s4.5-2.015,4.5-4.5C11,31.014,8.985,29,6.5,29L6.5,29z"/>
</g>
<g>
	<circle style="fill:#DFF0FE;" cx="33.5" cy="23.5" r="4"/>
	<path style="fill:#4788C7;" d="M33.5,20c1.93,0,3.5,1.57,3.5,3.5S35.43,27,33.5,27S30,25.43,30,23.5S31.57,20,33.5,20 M33.5,19   c-2.485,0-4.5,2.014-4.5,4.5c0,2.485,2.015,4.5,4.5,4.5s4.5-2.015,4.5-4.5C38,21.014,35.985,19,33.5,19L33.5,19z"/>
</g>
</svg>
