<?xml version="1.0" encoding="iso-8859-1"?>
<!-- Generator: Adobe Illustrator 21.0.2, SVG Export Plug-In . SVG Version: 6.00 Build 0)  -->
<svg xmlns="http://www.w3.org/2000/svg" xmlns:xlink="http://www.w3.org/1999/xlink" version="1.1" id="Layer_1" x="0px" y="0px" viewBox="0 0 40 40" style="enable-background:new 0 0 40 40;" xml:space="preserve">
<g>
	<path style="fill:#98CCFD;" d="M5.177,34.5C4.515,33.951,1.5,31.272,1.5,28.069c0-3.473,2.171-6.753,2.753-7.569h0.265   c0.013,0.783,0.19,2.236,1.216,3.387C6.686,24.958,8.122,25.5,10,25.5h20c1.878,0,3.33-0.542,4.315-1.612   c1.063-1.154,1.284-2.612,1.321-3.388h0.081c0.585,0.798,2.783,4.027,2.783,7.5c0,3.205-3.015,5.937-3.68,6.5H5.177z"/>
	<g>
		<path style="fill:#4788C7;" d="M4.128,21.595c0.149,0.815,0.489,1.79,1.232,2.625C6.411,25.401,7.972,26,10,26h20    c2.024,0,3.6-0.597,4.683-1.773c0.72-0.782,1.089-1.69,1.275-2.471C36.791,23.106,38,25.495,38,28c0,2.812-2.547,5.28-3.365,6    H5.359C4.544,33.296,2,30.877,2,28.069C2,25.451,3.303,22.929,4.128,21.595 M35.966,20h-0.831c0,0,0.414,5-5.135,5    c-1.47,0-18.488,0-20,0c-5.549,0-4.966-5-4.966-5H4c0,0-3,3.852-3,8.069C1,31.948,5,35,5,35h30c0,0,4-3.121,4-7    C39,23.783,35.966,20,35.966,20L35.966,20z"/>
	</g>
</g>
<rect x="20" y="1" style="fill:#4788C7;" width="1" height="25"/>
<g>
	<path style="fill:#B6DCFE;" d="M8.889,22.5c0.627-1.234,1.611-3.97,1.611-9s-0.984-7.766-1.611-9H30.74   c0.417,0.66,1.76,3.232,1.76,9c0,5.763-1.341,8.336-1.761,9H8.889z"/>
	<g>
		<path style="fill:#4788C7;" d="M30.454,5C30.933,5.873,32,8.391,32,13.5c0,5.12-1.072,7.638-1.545,8.5H9.673    C10.295,20.486,11,17.818,11,13.5S10.295,6.514,9.673,5H30.454 M31,4H8c0,0,2,2.372,2,9.5S8,23,8,23h23c0,0,2-2.372,2-9.5    S31,4,31,4L31,4z"/>
	</g>
</g>
<path style="fill:#FFFFFF;" d="M15.454,5h-3C12.933,5.873,14,8.391,14,13.5c0,5.12-1.072,7.638-1.545,8.5h3  C15.928,21.138,17,18.62,17,13.5C17,8.391,15.933,5.873,15.454,5z"/>
<path style="fill:#FFFFFF;" d="M21.454,5h-3C18.933,5.873,20,8.391,20,13.5c0,5.12-1.072,7.638-1.545,8.5h3  C21.928,21.138,23,18.62,23,13.5C23,8.391,21.933,5.873,21.454,5z"/>
<path style="fill:#FFFFFF;" d="M27.454,5h-3C24.933,5.873,26,8.391,26,13.5c0,5.12-1.072,7.638-1.545,8.5h3  C27.928,21.138,29,18.62,29,13.5C29,8.391,27.933,5.873,27.454,5z"/>
<g>
	<path style="fill:#4788C7;" d="M20,4c2-1.57,6.111,0.789,10-3c-4.377,1.038-6.995,0-9,0h-1V4z"/>
</g>
<g>
	<circle style="fill:#DFF0FE;" cx="30.5" cy="26.5" r="2"/>
	<path style="fill:#4788C7;" d="M30.5,25c0.827,0,1.5,0.673,1.5,1.5S31.327,28,30.5,28S29,27.327,29,26.5S29.673,25,30.5,25    M30.5,24c-1.381,0-2.5,1.119-2.5,2.5s1.119,2.5,2.5,2.5s2.5-1.119,2.5-2.5S31.881,24,30.5,24L30.5,24z"/>
</g>
<g>
	<circle style="fill:#DFF0FE;" cx="10.5" cy="26.5" r="2"/>
	<path style="fill:#4788C7;" d="M10.5,25c0.827,0,1.5,0.673,1.5,1.5S11.327,28,10.5,28S9,27.327,9,26.5S9.673,25,10.5,25 M10.5,24   C9.119,24,8,25.119,8,26.5S9.119,29,10.5,29s2.5-1.119,2.5-2.5S11.881,24,10.5,24L10.5,24z"/>
</g>
<g>
	<circle style="fill:#B6DCFE;" cx="25.5" cy="26.5" r="2"/>
	<g>
		<path style="fill:#4788C7;" d="M25.5,25c0.827,0,1.5,0.673,1.5,1.5S26.327,28,25.5,28S24,27.327,24,26.5S24.673,25,25.5,25     M25.5,24c-1.381,0-2.5,1.119-2.5,2.5s1.119,2.5,2.5,2.5s2.5-1.119,2.5-2.5S26.881,24,25.5,24L25.5,24z"/>
	</g>
</g>
<g>
	<circle style="fill:#DFF0FE;" cx="20.5" cy="26.5" r="2"/>
	<g>
		<path style="fill:#4788C7;" d="M20.5,25c0.827,0,1.5,0.673,1.5,1.5S21.327,28,20.5,28S19,27.327,19,26.5S19.673,25,20.5,25     M20.5,24c-1.381,0-2.5,1.119-2.5,2.5s1.119,2.5,2.5,2.5s2.5-1.119,2.5-2.5S21.881,24,20.5,24L20.5,24z"/>
	</g>
</g>
<g>
	<circle style="fill:#B6DCFE;" cx="15.5" cy="26.5" r="2"/>
	<g>
		<path style="fill:#4788C7;" d="M15.5,25c0.827,0,1.5,0.673,1.5,1.5S16.327,28,15.5,28c-0.827,0-1.5-0.673-1.5-1.5    S14.673,25,15.5,25 M15.5,24c-1.381,0-2.5,1.119-2.5,2.5s1.119,2.5,2.5,2.5s2.5-1.119,2.5-2.5S16.881,24,15.5,24L15.5,24z"/>
	</g>
</g>
<circle style="fill:#4788C7;" cx="38.5" cy="18.5" r="1.5"/>
<path style="fill:none;stroke:#4788C7;stroke-miterlimit:10;" d="M36.258,21.289C35.453,20.172,35.5,19.016,35.5,18.5  c0-1.105,0.895-2,2-2s2,0.895,2,2"/>
<g>
	<path style="fill:#B6DCFE;" d="M1,39h38v-7.123C37.692,31.614,36.148,31,35,31c-1.458,0-3.563,1-5,1c-1.438,0-3.542-1-5-1   s-3.563,1-5,1c-1.438,0-3.542-1-5-1s-3.563,1-5,1c-1.438,0-3.542-1-5-1c-1.148,0-2.692,0.614-4,0.877V39z"/>
	<path style="fill:none;stroke:#4788C7;stroke-linecap:round;stroke-miterlimit:10;" d="M1.5,32.278   c0.363-0.087,0.738-0.191,1.113-0.297C3.459,31.745,4.335,31.5,5,31.5c0.663,0,1.537,0.246,2.382,0.484   C8.283,32.237,9.215,32.5,10,32.5s1.717-0.263,2.618-0.516C13.463,31.746,14.337,31.5,15,31.5s1.537,0.246,2.382,0.484   C18.283,32.237,19.215,32.5,20,32.5s1.717-0.263,2.618-0.516C23.463,31.746,24.337,31.5,25,31.5s1.537,0.246,2.382,0.484   C28.283,32.237,29.215,32.5,30,32.5s1.717-0.263,2.618-0.516C33.463,31.746,34.337,31.5,35,31.5c0.665,0,1.541,0.245,2.387,0.481   c0.375,0.105,0.75,0.21,1.113,0.297"/>
</g>
</svg>
