<?xml version="1.0" encoding="iso-8859-1"?>
<!-- Generator: Adobe Illustrator 19.2.1, SVG Export Plug-In . SVG Version: 6.00 Build 0)  -->
<svg version="1.1"  xmlns="http://www.w3.org/2000/svg" xmlns:xlink="http://www.w3.org/1999/xlink" x="0px" y="0px"
	 viewBox="0 0 40 40" style="enable-background:new 0 0 40 40;" xml:space="preserve">
<g>
	<rect x="1.5" y="1.5" style="fill:#DCD5F2;" width="37" height="7"/>
	<g>
		<path style="fill:#8B75A1;" d="M38,2v6H2V2H38 M39,1H1v8h38V1L39,1z"/>
	</g>
</g>
<g>
	<rect x="1.5" y="10.5" style="fill:#C2E8FF;" width="23" height="28"/>
	<g>
		<path style="fill:#7496C4;" d="M24,11v27H2V11H24 M25,10H1v29h24V10L25,10z"/>
	</g>
</g>
<g>
	<rect x="26.5" y="10.5" style="fill:#BAE0BD;" width="12" height="8"/>
	<g>
		<path style="fill:#5E9C76;" d="M38,11v7H27v-7H38 M39,10H26v9h13V10L39,10z"/>
	</g>
</g>
<g>
	<rect x="26.5" y="20.5" style="fill:#BAE0BD;" width="12" height="8"/>
	<g>
		<path style="fill:#5E9C76;" d="M38,21v7H27v-7H38 M39,20H26v9h13V20L39,20z"/>
	</g>
</g>
<g>
	<rect x="26.5" y="30.5" style="fill:#BAE0BD;" width="12" height="8"/>
	<g>
		<path style="fill:#5E9C76;" d="M38,31v7H27v-7H38 M39,30H26v9h13V30L39,30z"/>
	</g>
</g>
</svg>
