<svg xmlns="http://www.w3.org/2000/svg" xmlns:xlink="http://www.w3.org/1999/xlink" width="76" height="66" viewBox="0 0 76 66">
    <defs>
        <path id="a" d="M.43 13.13h19.307V.866H.43v12.262z"/>
    </defs>
    <g fill="none" fill-rule="evenodd">
        <path fill="#FFF" d="M50.12 32.3h-7.318l-4.128 4.096v.02h6.683v5.487c-1.537 1.067-3.419 1.715-5.608 1.715-5.915 0-9.87-4.268-9.87-10.099 0-5.907 3.802-10.137 9.486-10.137 2.904 0 5.231 1.29 6.876 3.035.051.055 3.187-3.263 3.187-3.263C46.778 20.448 43.667 19 39.365 19 30.992 19 25 25.173 25 33.519 25 41.789 31.146 48 39.749 48c4.187 0 7.72-1.258 10.37-3.735V32.3z"/>
        <path fill="#4F2D7F" d="M0 0h76v66H0z"/>
        <path fill="#FFF" d="M33.01 41.627a.198.198 0 0 0-.068-.248 9.549 9.549 0 0 1-1.275-1.07 9.675 9.675 0 0 1-2.054-3.07 9.671 9.671 0 0 1-.75-3.761 9.666 9.666 0 0 1 2.804-6.834 9.534 9.534 0 0 1 3.048-2.071 9.442 9.442 0 0 1 3.729-.759c.83 0 1.64.12 2.428.33a.195.195 0 0 0 .232-.108l1.898-4.123a.217.217 0 0 0-.126-.293 14.241 14.241 0 0 0-4.432-.709c-1.95 0-3.841.387-5.624 1.147a14.408 14.408 0 0 0-4.59 3.12 14.585 14.585 0 0 0-4.23 10.3c0 1.965.382 3.873 1.136 5.669a14.549 14.549 0 0 0 3.094 4.63 14.35 14.35 0 0 0 2.585 2.055.21.21 0 0 0 .301-.092l1.894-4.113zM43.196 24.895a.2.2 0 0 0 .082.258 9.501 9.501 0 0 1 1.942 1.49c.28.284.53.568.767.875.143.183.364.29.597.29l4.576-.002a.388.388 0 0 0 .35-.545 14.526 14.526 0 0 0-2.853-4.083 14.31 14.31 0 0 0-3.291-2.466.212.212 0 0 0-.29.098l-1.88 4.085z"/>
        <g transform="translate(32.68 34.913)">
            <mask id="b" fill="#fff">
                <use xlink:href="#a"/>
            </mask>
            <path fill="#FFF" d="M19.354.87L8.59.867a.384.384 0 0 0-.382.386L8.207 4.84c0 .213.172.387.384.387h4.111v.003a9.581 9.581 0 0 1-3.209 2.24 9.479 9.479 0 0 1-3.73.757c-1.064 0-2.194-.26-3.182-.582a.198.198 0 0 0-.243.11l-1.888 4.1c-.05.11 0 .244.112.288 1.623.64 3.489.988 5.202.988 1.948 0 3.84-.386 5.623-1.147A14.357 14.357 0 0 0 15.413 9.4v3.327a.383.383 0 0 0 .382.387l3.556.001a.386.386 0 0 0 .383-.386l.003-11.474a.386.386 0 0 0-.383-.386" mask="url(#b)"/>
        </g>
    </g>
</svg>
