<?xml version="1.0" standalone="no"?>
<!DOCTYPE svg PUBLIC "-//W3C//DTD SVG 20010904//EN"
 "http://www.w3.org/TR/2001/REC-SVG-20010904/DTD/svg10.dtd">
<svg version="1.0" xmlns="http://www.w3.org/2000/svg"
 width="95" height="50" viewBox="250 175 300 120"
 preserveAspectRatio="xMidYMid meet">
<metadata>
Created by potrace 1.15, written by Peter Selinger 2001-2017
</metadata>
<g transform="translate(0.000000,485.000000) scale(0.100000,-0.100000)"
fill="#000000" stroke="none">
<path d="M2892 3323 c27 -30 116 -130 573 -648 160 -181 320 -363 357 -404 36
-42 64 -79 62 -83 -3 -5 -31 -8 -62 -8 -133 0 -339 -64 -483 -150 -72 -43 -85
-60 -45 -60 50 0 133 -26 212 -65 l82 -41 48 24 c227 115 556 136 804 52 147
-51 220 -105 220 -164 0 -16 2 -16 16 -5 26 21 44 66 44 109 0 79 -60 158
-200 262 -342 254 -1642 1208 -1647 1208 -4 0 5 -12 19 -27z"/>
<path d="M3790 3268 c0 -11 120 -512 124 -515 16 -16 411 -301 414 -298 2 1
-118 187 -267 411 -149 225 -271 406 -271 402z"/>
</g>
</svg>
