<?xml version="1.0" standalone="no"?>
<!DOCTYPE svg PUBLIC "-//W3C//DTD SVG 20010904//EN"
 "http://www.w3.org/TR/2001/REC-SVG-20010904/DTD/svg10.dtd">
<svg version="1.0" xmlns="http://www.w3.org/2000/svg"
 width="76" height="66" viewBox="0 0 110 125"
 preserveAspectRatio="xMidYMid meet">

<g transform="translate(0.000000,128.000000) scale(0.100000,-0.100000)"
fill="#000000" stroke="none">
<path d="M360 1173 c-1 -4 32 -71 72 -148 l72 -140 119 -88 c65 -49 121 -87
123 -84 2 2 -84 108 -191 236 -107 128 -195 229 -195 224z"/>
<path d="M0 1153 c0 -10 115 -133 267 -285 148 -148 263 -268 257 -268 -6 0
-44 11 -84 25 -40 14 -75 25 -77 25 -14 0 22 -29 131 -106 l124 -87 74 2 c113
3 238 -50 322 -138 35 -37 46 -32 46 18 0 70 -91 166 -277 291 -59 40 -254
175 -433 300 -388 269 -350 245 -350 223z m989 -718 c36 -42 45 -81 11 -50
-11 10 -18 21 -15 24 3 2 -16 27 -42 54 -37 39 -41 45 -17 29 18 -12 46 -38
63 -57z"/>
<path d="M704 230 c-27 -10 -54 -48 -54 -73 0 -10 14 -32 30 -49 27 -27 36
-30 72 -25 22 3 48 13 57 23 15 15 14 16 -9 9 -65 -18 -78 -17 -104 8 -20 20
-24 31 -17 49 15 42 79 56 118 26 7 -5 14 -5 18 2 4 6 -9 17 -29 25 -40 17
-52 18 -82 5z"/>
<path d="M895 231 c-55 -23 -66 -89 -21 -128 34 -29 84 -30 120 -2 35 28 37
91 3 114 -30 19 -77 27 -102 16z m93 -38 c19 -26 14 -60 -10 -77 -49 -34 -111
-6 -106 47 5 54 82 73 116 30z"/>
<path d="M170 160 c0 -40 4 -70 10 -70 6 0 10 14 10 30 0 28 2 30 39 30 55 0
61 18 9 22 -31 2 -44 8 -46 21 -3 15 5 17 57 17 34 0 61 4 61 10 0 6 -30 10
-70 10 l-70 0 0 -70z"/>
<path d="M382 218 c-20 -26 -63 -120 -57 -126 4 -4 12 1 19 11 17 22 104 24
112 2 4 -8 13 -15 21 -15 10 0 3 20 -24 70 -38 70 -52 81 -71 58z m34 -35 c22
-29 16 -43 -16 -43 -34 0 -34 0 -18 35 13 30 17 30 34 8z"/>
<path d="M510 160 l0 -70 66 0 c41 0 63 4 59 10 -3 5 -28 10 -56 10 l-49 0 0
60 c0 33 -4 60 -10 60 -6 0 -10 -30 -10 -70z"/>
<path d="M1060 160 c0 -40 4 -70 10 -70 6 0 10 26 10 57 l0 57 58 -57 c32 -31
63 -57 70 -57 8 0 12 22 12 70 0 40 -4 70 -10 70 -5 0 -10 -25 -10 -55 0 -30
-3 -55 -7 -55 -5 0 -30 25 -56 55 -66 75 -77 73 -77 -15z"/>
</g>
</svg>
